<mxfile host="app.diagrams.net" modified="2023-07-10T14:27:16.661Z" agent="Mozilla/5.0 (Macintosh; Intel Mac OS X 10_15_7) AppleWebKit/605.1.15 (KHTML, like Gecko) Version/16.4 Safari/605.1.15" etag="5peRcAVIgqO8PrgknqS5" version="21.6.1" type="device">
  <diagram id="A7mKjW4-tYVXBpYpWNh_" name="Page-1">
    <mxGraphModel dx="1097" dy="681" grid="1" gridSize="10" guides="1" tooltips="1" connect="1" arrows="1" fold="1" page="1" pageScale="1" pageWidth="827" pageHeight="1169" math="0" shadow="0">
      <root>
        <mxCell id="0" />
        <mxCell id="1" parent="0" />
        <mxCell id="YyNBfWquSTTaw1ReeC_T-1" value="Functions" style="rounded=1;whiteSpace=wrap;html=1;fillColor=#f5f5f5;fontColor=#333333;strokeColor=#666666;" parent="1" vertex="1">
          <mxGeometry x="40" y="50" width="120" height="40" as="geometry" />
        </mxCell>
        <mxCell id="YyNBfWquSTTaw1ReeC_T-5" value="Application" style="rounded=1;whiteSpace=wrap;html=1;fillColor=#f5f5f5;fontColor=#333333;strokeColor=#666666;" parent="1" vertex="1">
          <mxGeometry x="40" y="100" width="120" height="40" as="geometry" />
        </mxCell>
        <mxCell id="YyNBfWquSTTaw1ReeC_T-6" value="Runtime" style="rounded=1;whiteSpace=wrap;html=1;fillColor=#f5f5f5;fontColor=#333333;strokeColor=#666666;" parent="1" vertex="1">
          <mxGeometry x="40" y="150" width="120" height="40" as="geometry" />
        </mxCell>
        <mxCell id="YyNBfWquSTTaw1ReeC_T-8" value="Containers" style="rounded=1;whiteSpace=wrap;html=1;fillColor=#f5f5f5;fontColor=#333333;strokeColor=#666666;" parent="1" vertex="1">
          <mxGeometry x="40" y="200" width="120" height="40" as="geometry" />
        </mxCell>
        <mxCell id="YyNBfWquSTTaw1ReeC_T-9" value="Operating System" style="rounded=1;whiteSpace=wrap;html=1;fillColor=#f5f5f5;fontColor=#333333;strokeColor=#666666;" parent="1" vertex="1">
          <mxGeometry x="40" y="250" width="120" height="40" as="geometry" />
        </mxCell>
        <mxCell id="YyNBfWquSTTaw1ReeC_T-10" value="Virtualization" style="rounded=1;whiteSpace=wrap;html=1;fillColor=#f5f5f5;fontColor=#333333;strokeColor=#666666;" parent="1" vertex="1">
          <mxGeometry x="40" y="300" width="120" height="40" as="geometry" />
        </mxCell>
        <mxCell id="YyNBfWquSTTaw1ReeC_T-11" value="Hardware" style="rounded=1;whiteSpace=wrap;html=1;fillColor=#f5f5f5;fontColor=#333333;strokeColor=#666666;" parent="1" vertex="1">
          <mxGeometry x="40" y="350" width="120" height="40" as="geometry" />
        </mxCell>
        <mxCell id="YyNBfWquSTTaw1ReeC_T-18" value="Functions" style="rounded=1;whiteSpace=wrap;html=1;fillColor=#f5f5f5;fontColor=#333333;strokeColor=#666666;" parent="1" vertex="1">
          <mxGeometry x="320" y="50" width="120" height="40" as="geometry" />
        </mxCell>
        <mxCell id="YyNBfWquSTTaw1ReeC_T-19" value="Application" style="rounded=1;whiteSpace=wrap;html=1;fillColor=#f5f5f5;fontColor=#333333;strokeColor=#666666;" parent="1" vertex="1">
          <mxGeometry x="320" y="100" width="120" height="40" as="geometry" />
        </mxCell>
        <mxCell id="YyNBfWquSTTaw1ReeC_T-20" value="Runtime" style="rounded=1;whiteSpace=wrap;html=1;fillColor=#f5f5f5;fontColor=#333333;strokeColor=#666666;" parent="1" vertex="1">
          <mxGeometry x="320" y="150" width="120" height="40" as="geometry" />
        </mxCell>
        <mxCell id="YyNBfWquSTTaw1ReeC_T-21" value="Containers" style="rounded=1;whiteSpace=wrap;html=1;fillColor=#d5e8d4;strokeColor=#82b366;" parent="1" vertex="1">
          <mxGeometry x="320" y="200" width="120" height="40" as="geometry" />
        </mxCell>
        <mxCell id="YyNBfWquSTTaw1ReeC_T-22" value="Operating System" style="rounded=1;whiteSpace=wrap;html=1;fillColor=#dae8fc;strokeColor=#6c8ebf;" parent="1" vertex="1">
          <mxGeometry x="320" y="250" width="120" height="40" as="geometry" />
        </mxCell>
        <mxCell id="YyNBfWquSTTaw1ReeC_T-23" value="&lt;span style=&quot;caret-color: rgb(51, 51, 51); color: rgb(51, 51, 51);&quot;&gt;Virtualization&lt;/span&gt;" style="rounded=1;whiteSpace=wrap;html=1;fillColor=#dae8fc;strokeColor=#6c8ebf;" parent="1" vertex="1">
          <mxGeometry x="320" y="300" width="120" height="40" as="geometry" />
        </mxCell>
        <mxCell id="YyNBfWquSTTaw1ReeC_T-24" value="Hardware" style="rounded=1;whiteSpace=wrap;html=1;fillColor=#dae8fc;strokeColor=#6c8ebf;" parent="1" vertex="1">
          <mxGeometry x="320" y="350" width="120" height="40" as="geometry" />
        </mxCell>
        <mxCell id="YyNBfWquSTTaw1ReeC_T-32" value="Functions" style="rounded=1;whiteSpace=wrap;html=1;fillColor=#d5e8d4;strokeColor=#82b366;" parent="1" vertex="1">
          <mxGeometry x="460" y="50" width="120" height="40" as="geometry" />
        </mxCell>
        <mxCell id="YyNBfWquSTTaw1ReeC_T-33" value="Application" style="rounded=1;whiteSpace=wrap;html=1;fillColor=#f5f5f5;strokeColor=#666666;fontColor=#333333;" parent="1" vertex="1">
          <mxGeometry x="460" y="100" width="120" height="40" as="geometry" />
        </mxCell>
        <mxCell id="YyNBfWquSTTaw1ReeC_T-34" value="Runtime" style="rounded=1;whiteSpace=wrap;html=1;fillColor=#dae8fc;strokeColor=#6c8ebf;" parent="1" vertex="1">
          <mxGeometry x="460" y="150" width="120" height="40" as="geometry" />
        </mxCell>
        <mxCell id="YyNBfWquSTTaw1ReeC_T-35" value="Containers" style="rounded=1;whiteSpace=wrap;html=1;fillColor=#dae8fc;strokeColor=#6c8ebf;" parent="1" vertex="1">
          <mxGeometry x="460" y="200" width="120" height="40" as="geometry" />
        </mxCell>
        <mxCell id="YyNBfWquSTTaw1ReeC_T-36" value="Operating System" style="rounded=1;whiteSpace=wrap;html=1;fillColor=#dae8fc;strokeColor=#6c8ebf;" parent="1" vertex="1">
          <mxGeometry x="460" y="250" width="120" height="40" as="geometry" />
        </mxCell>
        <mxCell id="YyNBfWquSTTaw1ReeC_T-37" value="&lt;span style=&quot;caret-color: rgb(51, 51, 51); color: rgb(51, 51, 51);&quot;&gt;Virtualization&lt;/span&gt;" style="rounded=1;whiteSpace=wrap;html=1;fillColor=#dae8fc;strokeColor=#6c8ebf;" parent="1" vertex="1">
          <mxGeometry x="460" y="300" width="120" height="40" as="geometry" />
        </mxCell>
        <mxCell id="YyNBfWquSTTaw1ReeC_T-38" value="Hardware" style="rounded=1;whiteSpace=wrap;html=1;fillColor=#dae8fc;strokeColor=#6c8ebf;" parent="1" vertex="1">
          <mxGeometry x="460" y="350" width="120" height="40" as="geometry" />
        </mxCell>
        <mxCell id="YyNBfWquSTTaw1ReeC_T-39" value="&lt;font style=&quot;font-size: 18px;&quot;&gt;&lt;b&gt;CaaS&lt;/b&gt;&lt;/font&gt;" style="text;html=1;strokeColor=none;fillColor=none;align=center;verticalAlign=middle;whiteSpace=wrap;rounded=0;" parent="1" vertex="1">
          <mxGeometry x="350" y="10" width="60" height="30" as="geometry" />
        </mxCell>
        <mxCell id="YyNBfWquSTTaw1ReeC_T-41" value="&lt;font style=&quot;font-size: 18px;&quot;&gt;&lt;b&gt;FaaS&lt;/b&gt;&lt;/font&gt;" style="text;html=1;strokeColor=none;fillColor=none;align=center;verticalAlign=middle;whiteSpace=wrap;rounded=0;" parent="1" vertex="1">
          <mxGeometry x="490" y="10" width="60" height="30" as="geometry" />
        </mxCell>
        <mxCell id="YyNBfWquSTTaw1ReeC_T-42" value="&lt;font style=&quot;font-size: 18px;&quot;&gt;&lt;b&gt;Traditional&lt;/b&gt;&lt;/font&gt;" style="text;html=1;strokeColor=none;fillColor=none;align=center;verticalAlign=middle;whiteSpace=wrap;rounded=0;" parent="1" vertex="1">
          <mxGeometry x="70" y="10" width="60" height="30" as="geometry" />
        </mxCell>
        <mxCell id="YyNBfWquSTTaw1ReeC_T-45" value="" style="rounded=1;whiteSpace=wrap;html=1;fillColor=#dae8fc;strokeColor=#6c8ebf;" parent="1" vertex="1">
          <mxGeometry x="40" y="445" width="20" height="20" as="geometry" />
        </mxCell>
        <mxCell id="YyNBfWquSTTaw1ReeC_T-46" value="&lt;font style=&quot;font-size: 15px;&quot;&gt;Abstracted by Vendor&lt;/font&gt;" style="text;html=1;align=left;verticalAlign=middle;resizable=0;points=[];autosize=1;strokeColor=none;fillColor=none;fontSize=18;" parent="1" vertex="1">
          <mxGeometry x="70" y="440" width="170" height="30" as="geometry" />
        </mxCell>
        <mxCell id="YyNBfWquSTTaw1ReeC_T-47" value="" style="rounded=1;whiteSpace=wrap;html=1;fillColor=#f5f5f5;strokeColor=#666666;fontColor=#333333;" parent="1" vertex="1">
          <mxGeometry x="40" y="415" width="20" height="20" as="geometry" />
        </mxCell>
        <mxCell id="YyNBfWquSTTaw1ReeC_T-48" value="&lt;font style=&quot;font-size: 15px;&quot;&gt;Customer Managed&lt;/font&gt;" style="text;html=1;align=left;verticalAlign=middle;resizable=0;points=[];autosize=1;strokeColor=none;fillColor=none;fontSize=18;" parent="1" vertex="1">
          <mxGeometry x="70" y="410" width="160" height="30" as="geometry" />
        </mxCell>
        <mxCell id="YyNBfWquSTTaw1ReeC_T-49" value="" style="rounded=1;whiteSpace=wrap;html=1;fillColor=#d5e8d4;strokeColor=#82b366;" parent="1" vertex="1">
          <mxGeometry x="40" y="475" width="20" height="20" as="geometry" />
        </mxCell>
        <mxCell id="YyNBfWquSTTaw1ReeC_T-50" value="&lt;font style=&quot;font-size: 15px;&quot;&gt;Customer Managed Unit of Scale&lt;/font&gt;" style="text;html=1;align=left;verticalAlign=middle;resizable=0;points=[];autosize=1;strokeColor=none;fillColor=none;fontSize=18;" parent="1" vertex="1">
          <mxGeometry x="70" y="470" width="240" height="30" as="geometry" />
        </mxCell>
        <mxCell id="2jtSYzPSuZL6Fs6Jow6e-9" value="Functions" style="rounded=1;whiteSpace=wrap;html=1;fillColor=#f5f5f5;fontColor=#333333;strokeColor=#666666;" vertex="1" parent="1">
          <mxGeometry x="180" y="50" width="120" height="40" as="geometry" />
        </mxCell>
        <mxCell id="2jtSYzPSuZL6Fs6Jow6e-10" value="Application" style="rounded=1;whiteSpace=wrap;html=1;fillColor=#f5f5f5;fontColor=#333333;strokeColor=#666666;" vertex="1" parent="1">
          <mxGeometry x="180" y="100" width="120" height="40" as="geometry" />
        </mxCell>
        <mxCell id="2jtSYzPSuZL6Fs6Jow6e-11" value="Runtime" style="rounded=1;whiteSpace=wrap;html=1;fillColor=#f5f5f5;fontColor=#333333;strokeColor=#666666;" vertex="1" parent="1">
          <mxGeometry x="180" y="150" width="120" height="40" as="geometry" />
        </mxCell>
        <mxCell id="2jtSYzPSuZL6Fs6Jow6e-12" value="Containers" style="rounded=1;whiteSpace=wrap;html=1;fillColor=#f5f5f5;fontColor=#333333;strokeColor=#666666;" vertex="1" parent="1">
          <mxGeometry x="180" y="200" width="120" height="40" as="geometry" />
        </mxCell>
        <mxCell id="2jtSYzPSuZL6Fs6Jow6e-13" value="Operating System" style="rounded=1;whiteSpace=wrap;html=1;fillColor=#d5e8d4;strokeColor=#82b366;" vertex="1" parent="1">
          <mxGeometry x="180" y="250" width="120" height="40" as="geometry" />
        </mxCell>
        <mxCell id="2jtSYzPSuZL6Fs6Jow6e-14" value="&lt;span style=&quot;caret-color: rgb(51, 51, 51); color: rgb(51, 51, 51);&quot;&gt;Virtualization&lt;/span&gt;" style="rounded=1;whiteSpace=wrap;html=1;fillColor=#dae8fc;strokeColor=#6c8ebf;" vertex="1" parent="1">
          <mxGeometry x="180" y="300" width="120" height="40" as="geometry" />
        </mxCell>
        <mxCell id="2jtSYzPSuZL6Fs6Jow6e-15" value="Hardware" style="rounded=1;whiteSpace=wrap;html=1;fillColor=#dae8fc;strokeColor=#6c8ebf;" vertex="1" parent="1">
          <mxGeometry x="180" y="350" width="120" height="40" as="geometry" />
        </mxCell>
        <mxCell id="2jtSYzPSuZL6Fs6Jow6e-16" value="&lt;font style=&quot;font-size: 18px;&quot;&gt;&lt;b&gt;IaaS&lt;/b&gt;&lt;/font&gt;" style="text;html=1;strokeColor=none;fillColor=none;align=center;verticalAlign=middle;whiteSpace=wrap;rounded=0;" vertex="1" parent="1">
          <mxGeometry x="210" y="10" width="60" height="30" as="geometry" />
        </mxCell>
      </root>
    </mxGraphModel>
  </diagram>
</mxfile>
